<svg width="155" height="26" viewBox="0 0 155 26" fill="none" xmlns="http://www.w3.org/2000/svg">
<g clip-path="url(#clip0_313_122)">
<path d="M12.0944 0.894583C12.5527 -0.194029 14.1137 -0.194027 14.572 0.894586L17.2771 7.31977C17.4704 7.7787 17.9073 8.09227 18.4088 8.13199L25.4301 8.6881C26.6197 8.78232 27.1021 10.249 26.1957 11.016L20.8462 15.543C20.4642 15.8664 20.2972 16.3738 20.414 16.8572L22.0483 23.6261C22.3252 24.7729 21.0624 25.6795 20.0439 25.0649L14.0326 21.4375C13.6032 21.1784 13.0632 21.1784 12.6338 21.4375L6.62253 25.0649C5.60403 25.6795 4.34115 24.7729 4.61806 23.6261L6.25244 16.8572C6.36918 16.3738 6.20231 15.8664 5.82022 15.543L0.470627 11.016C-0.435746 10.249 0.0466351 8.78232 1.23627 8.6881L8.25768 8.13199C8.75921 8.09227 9.19609 7.7787 9.3893 7.31977L12.0944 0.894583Z" fill="#006B6A"/>
<path d="M44.0944 0.894583C44.5527 -0.194029 46.1137 -0.194027 46.572 0.894586L49.2771 7.31977C49.4704 7.7787 49.9073 8.09227 50.4088 8.13199L57.4301 8.6881C58.6197 8.78232 59.1021 10.249 58.1957 11.016L52.8462 15.543C52.4642 15.8664 52.2972 16.3738 52.414 16.8572L54.0483 23.6261C54.3252 24.7729 53.0624 25.6795 52.0439 25.0649L46.0326 21.4375C45.6032 21.1784 45.0632 21.1784 44.6338 21.4375L38.6225 25.0649C37.604 25.6795 36.3412 24.7729 36.6181 23.6261L38.2524 16.8572C38.3692 16.3738 38.2023 15.8664 37.8202 15.543L32.4706 11.016C31.5643 10.249 32.0466 8.78232 33.2363 8.6881L40.2577 8.13199C40.7592 8.09227 41.1961 7.7787 41.3893 7.31977L44.0944 0.894583Z" fill="#006B6A"/>
<path d="M76.0943 0.894583C76.5526 -0.194029 78.1136 -0.194027 78.5719 0.894586L81.2769 7.31977C81.4703 7.7787 81.9072 8.09227 82.4086 8.13199L89.43 8.6881C90.6196 8.78232 91.102 10.249 90.1956 11.016L84.8461 15.543C84.4641 15.8664 84.2971 16.3738 84.4138 16.8572L86.0482 23.6261C86.3251 24.7729 85.0623 25.6795 84.0438 25.0649L78.0325 21.4375C77.6031 21.1784 77.0631 21.1784 76.6337 21.4375L70.6224 25.0649C69.6039 25.6795 68.341 24.7729 68.6179 23.6261L70.2523 16.8572C70.3691 16.3738 70.2022 15.8664 69.8201 15.543L64.4705 11.016C63.5641 10.249 64.0465 8.78232 65.2361 8.6881L72.2576 8.13199C72.7591 8.09227 73.196 7.7787 73.3892 7.31977L76.0943 0.894583Z" fill="#006B6A"/>
<path d="M108.094 0.894583C108.553 -0.194029 110.114 -0.194027 110.572 0.894586L113.277 7.31977C113.47 7.7787 113.907 8.09227 114.409 8.13199L121.43 8.6881C122.62 8.78232 123.102 10.249 122.196 11.016L116.846 15.543C116.464 15.8664 116.297 16.3738 116.414 16.8572L118.048 23.6261C118.325 24.7729 117.062 25.6795 116.044 25.0649L110.032 21.4375C109.603 21.1784 109.063 21.1784 108.634 21.4375L102.622 25.0649C101.604 25.6795 100.341 24.7729 100.618 23.6261L102.252 16.8572C102.369 16.3738 102.202 15.8664 101.82 15.543L96.4705 11.016C95.5641 10.249 96.0465 8.78232 97.2361 8.6881L104.258 8.13199C104.759 8.09227 105.196 7.7787 105.389 7.31977L108.094 0.894583Z" fill="#006B6A"/>
<path d="M140.094 0.894583C140.552 -0.194029 142.113 -0.194027 142.572 0.894586L145.277 7.31977C145.47 7.7787 145.907 8.09227 146.408 8.13199L153.43 8.6881C154.619 8.78232 155.102 10.249 154.195 11.016L148.846 15.543C148.464 15.8664 148.297 16.3738 148.414 16.8572L150.048 23.6261C150.325 24.7729 149.062 25.6795 148.044 25.0649L142.032 21.4375C141.603 21.1784 141.063 21.1784 140.633 21.4375L134.622 25.0649C133.604 25.6795 132.341 24.7729 132.618 23.6261L134.252 16.8572C134.369 16.3738 134.202 15.8664 133.82 15.543L128.47 11.016C127.564 10.249 128.046 8.78232 129.236 8.6881L136.257 8.13199C136.759 8.09227 137.196 7.7787 137.389 7.31977L140.094 0.894583Z" fill="#006B6A"/>
</g>
<defs>
<clipPath id="clip0_313_122">
<rect width="154.666" height="25.1852" fill="white" transform="translate(-0.00012207 0.078125)"/>
</clipPath>
</defs>
</svg>
