<svg width="14" height="25" viewBox="0 0 14 25" fill="none" xmlns="http://www.w3.org/2000/svg">
<path d="M12.6667 4.9292H8.66667C7.93027 4.9292 7.33333 5.52616 7.33333 6.26253V10.2625H12.6667C12.8183 10.2592 12.9621 10.3297 13.0523 10.4517C13.1424 10.5737 13.1677 10.7319 13.12 10.8759L12.1333 13.8092C12.0424 14.0784 11.7908 14.2604 11.5067 14.2625H7.33333V24.2625C7.33333 24.6307 7.0348 24.9292 6.66667 24.9292H3.33333C2.96515 24.9292 2.66667 24.6307 2.66667 24.2625V14.2625H0.666667C0.29848 14.2625 0 13.964 0 13.5959V10.9292C0 10.5611 0.29848 10.2625 0.666667 10.2625H2.66667V6.26253C2.66667 3.31701 5.05453 0.929199 8 0.929199H12.6667C13.0348 0.929199 13.3333 1.22768 13.3333 1.59587V4.26253C13.3333 4.63072 13.0348 4.9292 12.6667 4.9292Z" fill="black"/>
</svg>
