<svg width="25" height="25" viewBox="0 0 25 25" fill="none" xmlns="http://www.w3.org/2000/svg">
<path fill-rule="evenodd" clip-rule="evenodd" d="M18.0001 0.929199H7.33341C3.65152 0.929199 0.666748 3.91397 0.666748 7.59587V18.2625C0.666748 21.9444 3.65152 24.9292 7.33341 24.9292H18.0001C21.6819 24.9292 24.6667 21.9444 24.6667 18.2625V7.59587C24.6667 3.91397 21.6819 0.929199 18.0001 0.929199ZM22.3334 18.2625C22.3261 20.6527 20.3902 22.5885 18.0001 22.5959H7.33341C4.94321 22.5885 3.0074 20.6527 3.00008 18.2625V7.59587C3.0074 5.20567 4.94321 3.26985 7.33341 3.26253H18.0001C20.3902 3.26985 22.3261 5.20567 22.3334 7.59587V18.2625ZM19.0001 7.9292C19.7365 7.9292 20.3334 7.33224 20.3334 6.59587C20.3334 5.85949 19.7365 5.26253 19.0001 5.26253C18.2637 5.26253 17.6667 5.85949 17.6667 6.59587C17.6667 7.33224 18.2637 7.9292 19.0001 7.9292ZM12.6667 6.9292C9.35304 6.9292 6.66675 9.61549 6.66675 12.9292C6.66675 16.2429 9.35304 18.9292 12.6667 18.9292C15.9805 18.9292 18.6667 16.2429 18.6667 12.9292C18.6703 11.3368 18.0393 9.80863 16.9133 8.68264C15.7873 7.55665 14.2591 6.92565 12.6667 6.9292ZM9.00008 12.9292C9.00008 14.9543 10.6417 16.5959 12.6667 16.5959C14.6918 16.5959 16.3334 14.9543 16.3334 12.9292C16.3334 10.9041 14.6918 9.26253 12.6667 9.26253C10.6417 9.26253 9.00008 10.9041 9.00008 12.9292Z" fill="black"/>
</svg>
