<svg width="25" height="25" viewBox="0 0 25 25" fill="none" xmlns="http://www.w3.org/2000/svg">
<path fill-rule="evenodd" clip-rule="evenodd" d="M3.33341 0.929199H22.0001C23.4729 0.929199 24.6667 2.12311 24.6667 3.59587V22.2625C24.6667 23.7353 23.4729 24.9292 22.0001 24.9292H3.33341C1.86065 24.9292 0.666748 23.7353 0.666748 22.2625V3.59587C0.666748 2.12311 1.86065 0.929199 3.33341 0.929199ZM7.33341 20.9292C7.7016 20.9292 8.00008 20.6307 8.00008 20.2625V10.9292C8.00008 10.5611 7.7016 10.2625 7.33341 10.2625H5.33341C4.96523 10.2625 4.66675 10.5611 4.66675 10.9292V20.2625C4.66675 20.6307 4.96523 20.9292 5.33341 20.9292H7.33341ZM6.33341 8.9292C5.22884 8.9292 4.33341 8.03377 4.33341 6.9292C4.33341 5.82463 5.22884 4.9292 6.33341 4.9292C7.43799 4.9292 8.33341 5.82463 8.33341 6.9292C8.33341 8.03377 7.43799 8.9292 6.33341 8.9292ZM20.0001 20.9292C20.3682 20.9292 20.6667 20.6307 20.6667 20.2625V14.1292C20.7101 12.0103 19.1435 10.2019 17.0401 9.94253C15.5694 9.8082 14.1445 10.4951 13.3334 11.7292V10.9292C13.3334 10.5611 13.0349 10.2625 12.6667 10.2625H10.6667C10.2986 10.2625 10.0001 10.5611 10.0001 10.9292V20.2625C10.0001 20.6307 10.2986 20.9292 10.6667 20.9292H12.6667C13.0349 20.9292 13.3334 20.6307 13.3334 20.2625V15.2625C13.3334 14.158 14.2289 13.2625 15.3334 13.2625C16.4379 13.2625 17.3334 14.158 17.3334 15.2625V20.2625C17.3334 20.6307 17.6319 20.9292 18.0001 20.9292H20.0001Z" fill="black"/>
</svg>
