<svg width="25" height="22" viewBox="0 0 25 22" fill="none" xmlns="http://www.w3.org/2000/svg">
<path d="M24.6304 3.88574C24.0112 4.71176 23.2627 5.43231 22.4137 6.01955C22.4137 6.23532 22.4137 6.4511 22.4137 6.67887C22.4205 10.5973 20.8553 14.3547 18.0691 17.1085C15.2827 19.8624 11.5083 21.3824 7.59207 21.3277C5.32799 21.3353 3.0929 20.8184 1.0619 19.8173C0.952376 19.7695 0.881749 19.6612 0.882163 19.5416V19.4097C0.882163 19.2376 1.02164 19.0981 1.1937 19.0981C3.41923 19.0247 5.56536 18.2531 7.32846 16.8924C5.31404 16.8517 3.50159 15.6584 2.66747 13.8235C2.62535 13.7233 2.63846 13.6083 2.7021 13.5201C2.76572 13.432 2.87067 13.3835 2.979 13.392C3.59123 13.4535 4.20958 13.3965 4.80027 13.2241C2.57652 12.7625 0.905616 10.9164 0.666483 8.6568C0.657989 8.5484 0.706563 8.44347 0.794669 8.37974C0.882763 8.31614 0.997656 8.30294 1.09784 8.3452C1.69459 8.60854 2.33879 8.7472 2.99099 8.75267C1.04246 7.47382 0.200816 5.04127 0.942069 2.83083C1.01859 2.61604 1.20242 2.45736 1.426 2.41312C1.64958 2.36887 1.87995 2.44558 2.03243 2.61506C4.66186 5.41354 8.27472 7.08115 12.1092 7.26626C12.0111 6.87434 11.9628 6.47155 11.9655 6.06749C12.0013 3.94883 13.3123 2.06148 15.2845 1.28903C17.2567 0.516588 19.4999 1.01191 20.964 2.54312C21.9619 2.353 22.9267 2.0178 23.8276 1.54815C23.8936 1.50695 23.9773 1.50695 24.0433 1.54815C24.0845 1.61418 24.0845 1.6979 24.0433 1.76392C23.6069 2.76323 22.8697 3.60136 21.9345 4.16146C22.7535 4.06648 23.558 3.8733 24.3309 3.58606C24.396 3.54176 24.4815 3.54176 24.5465 3.58606C24.6011 3.61099 24.6419 3.65868 24.658 3.71643C24.6741 3.77417 24.664 3.83611 24.6304 3.88574Z" fill="black"/>
</svg>
